<svg xmlns="http://www.w3.org/2000/svg" viewBox="0 0 32 32" width="32" height="32" fill="none">
  <defs>
    <linearGradient id="g1" x1="0" y1="0" x2="32" y2="32" gradientUnits="userSpaceOnUse">
      <stop offset="0%" stop-color="#e74c3c"/>
      <stop offset="100%" stop-color="#ff6b6b"/>
    </linearGradient>
    <linearGradient id="g2" x1="0" y1="32" x2="32" y2="0" gradientUnits="userSpaceOnUse">
      <stop offset="0%" stop-color="#2c3e50"/>
      <stop offset="100%" stop-color="#e74c3c"/>
    </linearGradient>
    <linearGradient id="g3" x1="16" y1="2" x2="16" y2="14" gradientUnits="userSpaceOnUse">
      <stop offset="0%" stop-color="#ff6b6b"/>
      <stop offset="100%" stop-color="#e74c3c" stop-opacity="0.3"/>
    </linearGradient>
  </defs>

  <!-- Database body (compact, lower half) -->
  <ellipse cx="16" cy="18" rx="9" ry="3.2" stroke="url(#g1)" stroke-width="1.6"/>
  <path d="M7 18v7.5c0 1.77 4 3.2 9 3.2s9-1.43 9-3.2V18" stroke="url(#g1)" stroke-width="1.6" stroke-linecap="round"/>
  <ellipse cx="16" cy="25.5" rx="9" ry="3.2" stroke="url(#g1)" stroke-width="1.6"/>
  <path d="M7 21.8c0 1.77 4 3.2 9 3.2s9-1.43 9-3.2" stroke="url(#g2)" stroke-width="1" stroke-linecap="round" opacity="0.45"/>

  <!-- AI spark / neural burst rising from the DB -->
  <!-- Center stem -->
  <path d="M16 14.8 L16 6" stroke="url(#g3)" stroke-width="1.5" stroke-linecap="round"/>

  <!-- Left branch -->
  <path d="M16 11.5 L11 7.5" stroke="url(#g3)" stroke-width="1.2" stroke-linecap="round"/>
  <circle cx="10" cy="6.8" r="1.5" fill="url(#g1)" opacity="0.85"/>

  <!-- Right branch -->
  <path d="M16 11.5 L21 7.5" stroke="url(#g3)" stroke-width="1.2" stroke-linecap="round"/>
  <circle cx="22" cy="6.8" r="1.5" fill="url(#g1)" opacity="0.85"/>

  <!-- Top spark node -->
  <circle cx="16" cy="4.5" r="2" fill="url(#g1)"/>

  <!-- Secondary outer branches -->
  <path d="M10 6.8 L6.5 4" stroke="url(#g2)" stroke-width="0.9" stroke-linecap="round" opacity="0.5"/>
  <circle cx="5.8" cy="3.3" r="1" fill="url(#g2)" opacity="0.55"/>

  <path d="M22 6.8 L25.5 4" stroke="url(#g2)" stroke-width="0.9" stroke-linecap="round" opacity="0.5"/>
  <circle cx="26.2" cy="3.3" r="1" fill="url(#g2)" opacity="0.55"/>

  <!-- Data glow dots on the DB surface -->
  <circle cx="12.5" cy="18" r="1" fill="#ff6b6b" opacity="0.7"/>
  <circle cx="19.5" cy="18" r="1" fill="#e74c3c" opacity="0.7"/>
</svg>